<svg xmlns="http://www.w3.org/2000/svg" xmlns:xlink="http://www.w3.org/1999/xlink" width="500" zoomAndPan="magnify" viewBox="0 0 375 127.500001" height="170" preserveAspectRatio="xMidYMid meet" version="1.0"><defs><g/><clipPath id="860264bef7"><path d="M 179 0 L 281.285156 0 L 281.285156 127.003906 L 179 127.003906 Z M 179 0 " clip-rule="nonzero"/></clipPath><clipPath id="347117e552"><path d="M 281.222656 51.097656 L 261.367188 31.253906 L 253.738281 23.628906 L 237.296875 7.195312 L 230.125 0 L 225.046875 5.074219 L 224.9375 5.074219 L 224.9375 5.183594 L 206.480469 23.628906 L 204.332031 25.777344 L 179 51.097656 L 186.199219 58.292969 L 198.691406 45.804688 L 198.691406 95.613281 L 208.875 105.789062 L 208.875 71.125 L 224.9375 71.125 L 224.9375 121.847656 L 230.097656 127.003906 L 235.09375 122.007812 L 235.09375 71.125 L 251.160156 71.125 L 251.160156 105.953125 L 261.34375 95.773438 L 261.34375 45.617188 L 273.996094 58.265625 L 281.195312 51.070312 Z M 208.875 60.949219 L 208.875 35.628906 L 224.9375 19.574219 L 224.9375 60.949219 Z M 251.1875 60.949219 L 235.121094 60.949219 L 235.121094 19.386719 L 251.1875 35.441406 Z M 251.1875 60.949219 " clip-rule="nonzero"/></clipPath><linearGradient x1="191.842183" gradientTransform="matrix(0.268656, 0, 0, 0.268503, 178.998778, 0.00000498047)" y1="474.052684" x2="189.19112" gradientUnits="userSpaceOnUse" y2="-1.05567" id="114f52560e"><stop stop-opacity="1" stop-color="rgb(18.4021%, 64.466858%, 94.734192%)" offset="0"/><stop stop-opacity="1" stop-color="rgb(18.319702%, 64.309692%, 94.615173%)" offset="0.00446865"/><stop stop-opacity="1" stop-color="rgb(18.238831%, 64.152527%, 94.496155%)" offset="0.0078125"/><stop stop-opacity="1" stop-color="rgb(18.157959%, 63.995361%, 94.377136%)" offset="0.015625"/><stop stop-opacity="1" stop-color="rgb(17.99469%, 63.682556%, 94.139099%)" offset="0.0234375"/><stop stop-opacity="1" stop-color="rgb(17.831421%, 63.368225%, 93.901062%)" offset="0.03125"/><stop stop-opacity="1" stop-color="rgb(17.669678%, 63.05542%, 93.663025%)" offset="0.0390625"/><stop stop-opacity="1" stop-color="rgb(17.506409%, 62.741089%, 93.424988%)" offset="0.046875"/><stop stop-opacity="1" stop-color="rgb(17.34314%, 62.428284%, 93.185425%)" offset="0.0546875"/><stop stop-opacity="1" stop-color="rgb(17.181396%, 62.113953%, 92.947388%)" offset="0.0625"/><stop stop-opacity="1" stop-color="rgb(17.018127%, 61.799622%, 92.709351%)" offset="0.0703125"/><stop stop-opacity="1" stop-color="rgb(16.856384%, 61.486816%, 92.471313%)" offset="0.078125"/><stop stop-opacity="1" stop-color="rgb(16.693115%, 61.172485%, 92.233276%)" offset="0.0859375"/><stop stop-opacity="1" stop-color="rgb(16.529846%, 60.85968%, 91.995239%)" offset="0.09375"/><stop stop-opacity="1" stop-color="rgb(16.368103%, 60.545349%, 91.757202%)" offset="0.101562"/><stop stop-opacity="1" stop-color="rgb(16.204834%, 60.232544%, 91.519165%)" offset="0.109375"/><stop stop-opacity="1" stop-color="rgb(16.041565%, 59.918213%, 91.281128%)" offset="0.117188"/><stop stop-opacity="1" stop-color="rgb(15.879822%, 59.605408%, 91.043091%)" offset="0.125"/><stop stop-opacity="1" stop-color="rgb(15.716553%, 59.291077%, 90.803528%)" offset="0.132812"/><stop stop-opacity="1" stop-color="rgb(15.553284%, 58.978271%, 90.565491%)" offset="0.140625"/><stop stop-opacity="1" stop-color="rgb(15.391541%, 58.66394%, 90.327454%)" offset="0.148438"/><stop stop-opacity="1" stop-color="rgb(15.228271%, 58.351135%, 90.089417%)" offset="0.15625"/><stop stop-opacity="1" stop-color="rgb(15.065002%, 58.036804%, 89.851379%)" offset="0.164062"/><stop stop-opacity="1" stop-color="rgb(14.903259%, 57.722473%, 89.613342%)" offset="0.171875"/><stop stop-opacity="1" stop-color="rgb(14.73999%, 57.409668%, 89.375305%)" offset="0.179687"/><stop stop-opacity="1" stop-color="rgb(14.576721%, 57.095337%, 89.137268%)" offset="0.1875"/><stop stop-opacity="1" stop-color="rgb(14.414978%, 56.782532%, 88.899231%)" offset="0.195312"/><stop stop-opacity="1" stop-color="rgb(14.251709%, 56.468201%, 88.661194%)" offset="0.203125"/><stop stop-opacity="1" stop-color="rgb(14.08844%, 56.155396%, 88.423157%)" offset="0.210937"/><stop stop-opacity="1" stop-color="rgb(13.926697%, 55.841064%, 88.183594%)" offset="0.21875"/><stop stop-opacity="1" stop-color="rgb(13.763428%, 55.528259%, 87.945557%)" offset="0.226563"/><stop stop-opacity="1" stop-color="rgb(13.601685%, 55.213928%, 87.70752%)" offset="0.234375"/><stop stop-opacity="1" stop-color="rgb(13.438416%, 54.901123%, 87.469482%)" offset="0.242187"/><stop stop-opacity="1" stop-color="rgb(13.275146%, 54.586792%, 87.231445%)" offset="0.25"/><stop stop-opacity="1" stop-color="rgb(13.113403%, 54.273987%, 86.993408%)" offset="0.257813"/><stop stop-opacity="1" stop-color="rgb(12.950134%, 53.959656%, 86.755371%)" offset="0.265625"/><stop stop-opacity="1" stop-color="rgb(12.786865%, 53.645325%, 86.517334%)" offset="0.273437"/><stop stop-opacity="1" stop-color="rgb(12.625122%, 53.33252%, 86.279297%)" offset="0.28125"/><stop stop-opacity="1" stop-color="rgb(12.461853%, 53.018188%, 86.04126%)" offset="0.289062"/><stop stop-opacity="1" stop-color="rgb(12.298584%, 52.705383%, 85.803223%)" offset="0.296875"/><stop stop-opacity="1" stop-color="rgb(12.136841%, 52.391052%, 85.56366%)" offset="0.304687"/><stop stop-opacity="1" stop-color="rgb(11.973572%, 52.078247%, 85.325623%)" offset="0.3125"/><stop stop-opacity="1" stop-color="rgb(11.810303%, 51.763916%, 85.087585%)" offset="0.320312"/><stop stop-opacity="1" stop-color="rgb(11.64856%, 51.451111%, 84.849548%)" offset="0.328125"/><stop stop-opacity="1" stop-color="rgb(11.485291%, 51.13678%, 84.611511%)" offset="0.335937"/><stop stop-opacity="1" stop-color="rgb(11.322021%, 50.823975%, 84.373474%)" offset="0.34375"/><stop stop-opacity="1" stop-color="rgb(11.160278%, 50.509644%, 84.135437%)" offset="0.351563"/><stop stop-opacity="1" stop-color="rgb(10.997009%, 50.195312%, 83.8974%)" offset="0.359375"/><stop stop-opacity="1" stop-color="rgb(10.835266%, 49.882507%, 83.659363%)" offset="0.367188"/><stop stop-opacity="1" stop-color="rgb(10.671997%, 49.568176%, 83.421326%)" offset="0.375"/><stop stop-opacity="1" stop-color="rgb(10.508728%, 49.255371%, 83.181763%)" offset="0.382813"/><stop stop-opacity="1" stop-color="rgb(10.346985%, 48.94104%, 82.943726%)" offset="0.390625"/><stop stop-opacity="1" stop-color="rgb(10.183716%, 48.628235%, 82.705688%)" offset="0.398438"/><stop stop-opacity="1" stop-color="rgb(10.020447%, 48.313904%, 82.467651%)" offset="0.40625"/><stop stop-opacity="1" stop-color="rgb(9.858704%, 48.001099%, 82.229614%)" offset="0.414063"/><stop stop-opacity="1" stop-color="rgb(9.695435%, 47.686768%, 81.991577%)" offset="0.421875"/><stop stop-opacity="1" stop-color="rgb(9.532166%, 47.373962%, 81.75354%)" offset="0.429688"/><stop stop-opacity="1" stop-color="rgb(9.370422%, 47.059631%, 81.515503%)" offset="0.4375"/><stop stop-opacity="1" stop-color="rgb(9.207153%, 46.746826%, 81.277466%)" offset="0.445312"/><stop stop-opacity="1" stop-color="rgb(9.043884%, 46.432495%, 81.039429%)" offset="0.453125"/><stop stop-opacity="1" stop-color="rgb(8.882141%, 46.118164%, 80.801392%)" offset="0.460938"/><stop stop-opacity="1" stop-color="rgb(8.718872%, 45.805359%, 80.561829%)" offset="0.46875"/><stop stop-opacity="1" stop-color="rgb(8.555603%, 45.491028%, 80.323792%)" offset="0.476562"/><stop stop-opacity="1" stop-color="rgb(8.39386%, 45.178223%, 80.085754%)" offset="0.484375"/><stop stop-opacity="1" stop-color="rgb(8.230591%, 44.863892%, 79.847717%)" offset="0.492187"/><stop stop-opacity="1" stop-color="rgb(8.068848%, 44.551086%, 79.60968%)" offset="0.5"/><stop stop-opacity="1" stop-color="rgb(7.905579%, 44.236755%, 79.371643%)" offset="0.507812"/><stop stop-opacity="1" stop-color="rgb(7.74231%, 43.92395%, 79.133606%)" offset="0.515625"/><stop stop-opacity="1" stop-color="rgb(7.580566%, 43.609619%, 78.895569%)" offset="0.523437"/><stop stop-opacity="1" stop-color="rgb(7.417297%, 43.296814%, 78.657532%)" offset="0.53125"/><stop stop-opacity="1" stop-color="rgb(7.254028%, 42.982483%, 78.419495%)" offset="0.539062"/><stop stop-opacity="1" stop-color="rgb(7.092285%, 42.669678%, 78.179932%)" offset="0.546875"/><stop stop-opacity="1" stop-color="rgb(6.929016%, 42.355347%, 77.941895%)" offset="0.554687"/><stop stop-opacity="1" stop-color="rgb(6.765747%, 42.041016%, 77.703857%)" offset="0.5625"/><stop stop-opacity="1" stop-color="rgb(6.604004%, 41.72821%, 77.46582%)" offset="0.570312"/><stop stop-opacity="1" stop-color="rgb(6.440735%, 41.413879%, 77.227783%)" offset="0.578125"/><stop stop-opacity="1" stop-color="rgb(6.277466%, 41.101074%, 76.989746%)" offset="0.585937"/><stop stop-opacity="1" stop-color="rgb(6.115723%, 40.786743%, 76.751709%)" offset="0.59375"/><stop stop-opacity="1" stop-color="rgb(5.952454%, 40.473938%, 76.513672%)" offset="0.601562"/><stop stop-opacity="1" stop-color="rgb(5.789185%, 40.159607%, 76.275635%)" offset="0.609375"/><stop stop-opacity="1" stop-color="rgb(5.627441%, 39.846802%, 76.037598%)" offset="0.617187"/><stop stop-opacity="1" stop-color="rgb(5.464172%, 39.532471%, 75.799561%)" offset="0.625"/><stop stop-opacity="1" stop-color="rgb(5.300903%, 39.219666%, 75.559998%)" offset="0.632812"/><stop stop-opacity="1" stop-color="rgb(5.13916%, 38.905334%, 75.32196%)" offset="0.640625"/><stop stop-opacity="1" stop-color="rgb(4.975891%, 38.591003%, 75.083923%)" offset="0.648437"/><stop stop-opacity="1" stop-color="rgb(4.814148%, 38.278198%, 74.845886%)" offset="0.65625"/><stop stop-opacity="1" stop-color="rgb(4.650879%, 37.963867%, 74.607849%)" offset="0.664062"/><stop stop-opacity="1" stop-color="rgb(4.48761%, 37.651062%, 74.369812%)" offset="0.671875"/><stop stop-opacity="1" stop-color="rgb(4.325867%, 37.336731%, 74.131775%)" offset="0.679687"/><stop stop-opacity="1" stop-color="rgb(4.162598%, 37.023926%, 73.893738%)" offset="0.6875"/><stop stop-opacity="1" stop-color="rgb(3.999329%, 36.709595%, 73.655701%)" offset="0.695312"/><stop stop-opacity="1" stop-color="rgb(3.837585%, 36.39679%, 73.417664%)" offset="0.703125"/><stop stop-opacity="1" stop-color="rgb(3.674316%, 36.082458%, 73.178101%)" offset="0.710937"/><stop stop-opacity="1" stop-color="rgb(3.511047%, 35.769653%, 72.940063%)" offset="0.71875"/><stop stop-opacity="1" stop-color="rgb(3.349304%, 35.455322%, 72.702026%)" offset="0.726562"/><stop stop-opacity="1" stop-color="rgb(3.186035%, 35.142517%, 72.463989%)" offset="0.734375"/><stop stop-opacity="1" stop-color="rgb(3.022766%, 34.828186%, 72.225952%)" offset="0.742187"/><stop stop-opacity="1" stop-color="rgb(2.861023%, 34.513855%, 71.987915%)" offset="0.75"/><stop stop-opacity="1" stop-color="rgb(2.697754%, 34.20105%, 71.749878%)" offset="0.757812"/><stop stop-opacity="1" stop-color="rgb(2.534485%, 33.886719%, 71.511841%)" offset="0.765625"/><stop stop-opacity="1" stop-color="rgb(2.372742%, 33.573914%, 71.273804%)" offset="0.773437"/><stop stop-opacity="1" stop-color="rgb(2.209473%, 33.259583%, 71.035767%)" offset="0.78125"/><stop stop-opacity="1" stop-color="rgb(2.047729%, 32.946777%, 70.797729%)" offset="0.789062"/><stop stop-opacity="1" stop-color="rgb(1.88446%, 32.632446%, 70.558167%)" offset="0.796875"/><stop stop-opacity="1" stop-color="rgb(1.721191%, 32.319641%, 70.320129%)" offset="0.804687"/><stop stop-opacity="1" stop-color="rgb(1.559448%, 32.00531%, 70.082092%)" offset="0.8125"/><stop stop-opacity="1" stop-color="rgb(1.396179%, 31.692505%, 69.844055%)" offset="0.820312"/><stop stop-opacity="1" stop-color="rgb(1.23291%, 31.378174%, 69.606018%)" offset="0.828125"/><stop stop-opacity="1" stop-color="rgb(1.071167%, 31.065369%, 69.367981%)" offset="0.835937"/><stop stop-opacity="1" stop-color="rgb(0.907898%, 30.751038%, 69.129944%)" offset="0.84375"/><stop stop-opacity="1" stop-color="rgb(0.744629%, 30.436707%, 68.891907%)" offset="0.851562"/><stop stop-opacity="1" stop-color="rgb(0.582886%, 30.123901%, 68.65387%)" offset="0.859375"/><stop stop-opacity="1" stop-color="rgb(0.419617%, 29.80957%, 68.415833%)" offset="0.867187"/><stop stop-opacity="1" stop-color="rgb(0.256348%, 29.496765%, 68.177795%)" offset="0.875"/><stop stop-opacity="1" stop-color="rgb(0.0869751%, 29.168701%, 67.929077%)" offset="0.995531"/><stop stop-opacity="1" stop-color="rgb(0%, 28.999329%, 67.799377%)" offset="1"/></linearGradient></defs><g fill="#1c80d6" fill-opacity="1"><g transform="translate(1.035918, 81.141809)"><g><path d="M 5.21875 0 C 4.863281 0 4.5625 -0.125 4.3125 -0.375 C 4.0625 -0.625 3.9375 -0.941406 3.9375 -1.328125 L 3.9375 -35.96875 C 3.9375 -36.351562 4.0625 -36.671875 4.3125 -36.921875 C 4.5625 -37.171875 4.863281 -37.296875 5.21875 -37.296875 L 21.09375 -37.296875 C 24.039062 -37.296875 26.460938 -36.867188 28.359375 -36.015625 C 30.265625 -35.160156 31.660156 -33.953125 32.546875 -32.390625 C 33.441406 -30.828125 33.890625 -29 33.890625 -26.90625 C 33.890625 -25.59375 33.648438 -24.4375 33.171875 -23.4375 C 32.691406 -22.445312 32.101562 -21.628906 31.40625 -20.984375 C 30.71875 -20.347656 30.050781 -19.867188 29.40625 -19.546875 C 30.789062 -18.910156 32.015625 -17.851562 33.078125 -16.375 C 34.148438 -14.90625 34.6875 -13.160156 34.6875 -11.140625 C 34.6875 -8.898438 34.179688 -6.941406 33.171875 -5.265625 C 32.160156 -3.597656 30.675781 -2.300781 28.71875 -1.375 C 26.757812 -0.457031 24.378906 0 21.578125 0 Z M 12.421875 -6.28125 L 20.5625 -6.28125 C 22.300781 -6.28125 23.613281 -6.769531 24.5 -7.75 C 25.394531 -8.726562 25.84375 -9.875 25.84375 -11.1875 C 25.84375 -12.570312 25.390625 -13.734375 24.484375 -14.671875 C 23.578125 -15.617188 22.269531 -16.09375 20.5625 -16.09375 L 12.421875 -16.09375 Z M 12.421875 -22.21875 L 20.09375 -22.21875 C 21.757812 -22.21875 23.007812 -22.632812 23.84375 -23.46875 C 24.675781 -24.300781 25.09375 -25.375 25.09375 -26.6875 C 25.09375 -28.007812 24.675781 -29.0625 23.84375 -29.84375 C 23.007812 -30.625 21.757812 -31.015625 20.09375 -31.015625 L 12.421875 -31.015625 Z M 12.421875 -22.21875 "/></g></g></g><g fill="#000000" fill-opacity="1"><g transform="translate(38.062589, 81.141809)"><g><path d="M 13.53125 0.53125 C 11.46875 0.53125 9.644531 0.0625 8.0625 -0.875 C 6.488281 -1.820312 5.253906 -3.191406 4.359375 -4.984375 C 3.472656 -6.773438 3.03125 -8.953125 3.03125 -11.515625 L 3.03125 -26.375 C 3.03125 -26.757812 3.164062 -27.078125 3.4375 -27.328125 C 3.707031 -27.578125 4.019531 -27.703125 4.375 -27.703125 L 10.0625 -27.703125 C 10.425781 -27.703125 10.726562 -27.578125 10.96875 -27.328125 C 11.21875 -27.078125 11.34375 -26.757812 11.34375 -26.375 L 11.34375 -11.828125 C 11.34375 -7.847656 13.085938 -5.859375 16.578125 -5.859375 C 18.242188 -5.859375 19.5625 -6.378906 20.53125 -7.421875 C 21.507812 -8.472656 22 -9.941406 22 -11.828125 L 22 -26.375 C 22 -26.757812 22.125 -27.078125 22.375 -27.328125 C 22.625 -27.578125 22.945312 -27.703125 23.34375 -27.703125 L 28.984375 -27.703125 C 29.335938 -27.703125 29.640625 -27.578125 29.890625 -27.328125 C 30.140625 -27.078125 30.265625 -26.757812 30.265625 -26.375 L 30.265625 -1.328125 C 30.265625 -0.941406 30.140625 -0.625 29.890625 -0.375 C 29.640625 -0.125 29.335938 0 28.984375 0 L 23.703125 0 C 23.347656 0 23.046875 -0.125 22.796875 -0.375 C 22.554688 -0.625 22.4375 -0.941406 22.4375 -1.328125 L 22.4375 -3.40625 C 21.507812 -2.125 20.316406 -1.144531 18.859375 -0.46875 C 17.398438 0.195312 15.625 0.53125 13.53125 0.53125 Z M 13.53125 0.53125 "/></g></g></g><g fill="#000000" fill-opacity="1"><g transform="translate(71.686782, 81.141809)"><g><path d="M 8.421875 10.125 C 8.140625 10.125 7.878906 10.015625 7.640625 9.796875 C 7.410156 9.585938 7.296875 9.320312 7.296875 9 C 7.296875 8.925781 7.3125 8.828125 7.34375 8.703125 C 7.382812 8.585938 7.441406 8.441406 7.515625 8.265625 L 11.671875 -1.703125 L 1.4375 -25.84375 C 1.332031 -26.125 1.28125 -26.351562 1.28125 -26.53125 C 1.3125 -26.851562 1.429688 -27.128906 1.640625 -27.359375 C 1.859375 -27.585938 2.128906 -27.703125 2.453125 -27.703125 L 7.671875 -27.703125 C 8.097656 -27.703125 8.414062 -27.585938 8.625 -27.359375 C 8.84375 -27.128906 9.003906 -26.890625 9.109375 -26.640625 L 15.71875 -10.171875 L 22.484375 -26.640625 C 22.628906 -26.921875 22.804688 -27.164062 23.015625 -27.375 C 23.234375 -27.59375 23.570312 -27.703125 24.03125 -27.703125 L 29.09375 -27.703125 C 29.414062 -27.703125 29.691406 -27.585938 29.921875 -27.359375 C 30.148438 -27.128906 30.265625 -26.875 30.265625 -26.59375 C 30.265625 -26.414062 30.210938 -26.164062 30.109375 -25.84375 L 15.03125 9.0625 C 14.882812 9.34375 14.695312 9.585938 14.46875 9.796875 C 14.238281 10.015625 13.890625 10.125 13.421875 10.125 Z M 8.421875 10.125 "/></g></g></g><g fill="#1c80d6" fill-opacity="1"><g transform="translate(102.905955, 81.141809)"><g><path d="M 5.28125 0 C 4.882812 0 4.5625 -0.125 4.3125 -0.375 C 4.0625 -0.625 3.9375 -0.941406 3.9375 -1.328125 L 3.9375 -35.96875 C 3.9375 -36.351562 4.0625 -36.671875 4.3125 -36.921875 C 4.5625 -37.171875 4.882812 -37.296875 5.28125 -37.296875 L 10.28125 -37.296875 C 10.8125 -37.296875 11.207031 -37.148438 11.46875 -36.859375 C 11.738281 -36.578125 11.910156 -36.367188 11.984375 -36.234375 L 21.84375 -18.21875 L 31.703125 -36.234375 C 31.773438 -36.367188 31.941406 -36.578125 32.203125 -36.859375 C 32.472656 -37.148438 32.875 -37.296875 33.40625 -37.296875 L 38.359375 -37.296875 C 38.753906 -37.296875 39.070312 -37.171875 39.3125 -36.921875 C 39.5625 -36.671875 39.6875 -36.351562 39.6875 -35.96875 L 39.6875 -1.328125 C 39.6875 -0.941406 39.5625 -0.625 39.3125 -0.375 C 39.070312 -0.125 38.753906 0 38.359375 0 L 32.921875 0 C 32.566406 0 32.265625 -0.125 32.015625 -0.375 C 31.773438 -0.625 31.65625 -0.941406 31.65625 -1.328125 L 31.65625 -22.796875 L 24.875 -10.171875 C 24.738281 -9.859375 24.523438 -9.578125 24.234375 -9.328125 C 23.953125 -9.078125 23.566406 -8.953125 23.078125 -8.953125 L 20.5625 -8.953125 C 20.101562 -8.953125 19.726562 -9.078125 19.4375 -9.328125 C 19.15625 -9.578125 18.925781 -9.859375 18.75 -10.171875 L 12.046875 -22.796875 L 12.046875 -1.328125 C 12.046875 -0.941406 11.921875 -0.625 11.671875 -0.375 C 11.421875 -0.125 11.097656 0 10.703125 0 Z M 5.28125 0 "/></g></g></g><g fill="#000000" fill-opacity="1"><g transform="translate(146.539533, 81.141809)"><g><path d="M 8.421875 10.125 C 8.140625 10.125 7.878906 10.015625 7.640625 9.796875 C 7.410156 9.585938 7.296875 9.320312 7.296875 9 C 7.296875 8.925781 7.3125 8.828125 7.34375 8.703125 C 7.382812 8.585938 7.441406 8.441406 7.515625 8.265625 L 11.671875 -1.703125 L 1.4375 -25.84375 C 1.332031 -26.125 1.28125 -26.351562 1.28125 -26.53125 C 1.3125 -26.851562 1.429688 -27.128906 1.640625 -27.359375 C 1.859375 -27.585938 2.128906 -27.703125 2.453125 -27.703125 L 7.671875 -27.703125 C 8.097656 -27.703125 8.414062 -27.585938 8.625 -27.359375 C 8.84375 -27.128906 9.003906 -26.890625 9.109375 -26.640625 L 15.71875 -10.171875 L 22.484375 -26.640625 C 22.628906 -26.921875 22.804688 -27.164062 23.015625 -27.375 C 23.234375 -27.59375 23.570312 -27.703125 24.03125 -27.703125 L 29.09375 -27.703125 C 29.414062 -27.703125 29.691406 -27.585938 29.921875 -27.359375 C 30.148438 -27.128906 30.265625 -26.875 30.265625 -26.59375 C 30.265625 -26.414062 30.210938 -26.164062 30.109375 -25.84375 L 15.03125 9.0625 C 14.882812 9.34375 14.695312 9.585938 14.46875 9.796875 C 14.238281 10.015625 13.890625 10.125 13.421875 10.125 Z M 8.421875 10.125 "/></g></g></g><g fill="#000000" fill-opacity="1"><g transform="translate(177.764733, 81.141809)"><g/></g></g><g fill="#000000" fill-opacity="1"><g transform="translate(189.541189, 81.141809)"><g/></g></g><g fill="#000000" fill-opacity="1"><g transform="translate(201.309123, 81.141809)"><g/></g></g><g fill="#000000" fill-opacity="1"><g transform="translate(214.364478, 81.141809)"><g/></g></g><g fill="#000000" fill-opacity="1"><g transform="translate(227.419832, 81.141809)"><g/></g></g><g fill="#000000" fill-opacity="1"><g transform="translate(240.475186, 81.141809)"><g/></g></g><g fill="#000000" fill-opacity="1"><g transform="translate(253.530541, 81.141809)"><g/></g></g><g fill="#000000" fill-opacity="1"><g transform="translate(266.585895, 81.141809)"><g/></g></g><g fill="#000000" fill-opacity="1"><g transform="translate(279.634774, 81.141809)"><g><path d="M 4.640625 0 C 4.285156 0 3.972656 -0.125 3.703125 -0.375 C 3.429688 -0.625 3.296875 -0.941406 3.296875 -1.328125 L 3.296875 -26.375 C 3.296875 -26.757812 3.429688 -27.078125 3.703125 -27.328125 C 3.972656 -27.578125 4.285156 -27.703125 4.640625 -27.703125 L 10.015625 -27.703125 C 10.367188 -27.703125 10.671875 -27.578125 10.921875 -27.328125 C 11.171875 -27.078125 11.296875 -26.757812 11.296875 -26.375 L 11.296875 -1.328125 C 11.296875 -0.941406 11.171875 -0.625 10.921875 -0.375 C 10.671875 -0.125 10.367188 0 10.015625 0 Z M 4.46875 -31.96875 C 4.113281 -31.96875 3.8125 -32.09375 3.5625 -32.34375 C 3.320312 -32.59375 3.203125 -32.910156 3.203125 -33.296875 L 3.203125 -37.609375 C 3.203125 -37.972656 3.320312 -38.285156 3.5625 -38.546875 C 3.8125 -38.816406 4.113281 -38.953125 4.46875 -38.953125 L 10.125 -38.953125 C 10.476562 -38.953125 10.785156 -38.816406 11.046875 -38.546875 C 11.316406 -38.285156 11.453125 -37.972656 11.453125 -37.609375 L 11.453125 -33.296875 C 11.453125 -32.910156 11.316406 -32.59375 11.046875 -32.34375 C 10.785156 -32.09375 10.476562 -31.96875 10.125 -31.96875 Z M 4.46875 -31.96875 "/></g></g></g><g fill="#000000" fill-opacity="1"><g transform="translate(294.288744, 81.141809)"><g><path d="M 4.640625 0 C 4.285156 0 3.972656 -0.125 3.703125 -0.375 C 3.429688 -0.625 3.296875 -0.941406 3.296875 -1.328125 L 3.296875 -26.375 C 3.296875 -26.757812 3.429688 -27.078125 3.703125 -27.328125 C 3.972656 -27.578125 4.285156 -27.703125 4.640625 -27.703125 L 9.59375 -27.703125 C 9.976562 -27.703125 10.296875 -27.578125 10.546875 -27.328125 C 10.796875 -27.078125 10.921875 -26.757812 10.921875 -26.375 L 10.921875 -24.5625 C 11.671875 -25.550781 12.675781 -26.398438 13.9375 -27.109375 C 15.195312 -27.828125 16.695312 -28.203125 18.4375 -28.234375 C 22.519531 -28.304688 25.34375 -26.742188 26.90625 -23.546875 C 27.71875 -24.929688 28.890625 -26.054688 30.421875 -26.921875 C 31.953125 -27.796875 33.640625 -28.234375 35.484375 -28.234375 C 37.328125 -28.234375 38.992188 -27.816406 40.484375 -26.984375 C 41.984375 -26.148438 43.175781 -24.867188 44.0625 -23.140625 C 44.945312 -21.421875 45.390625 -19.210938 45.390625 -16.515625 L 45.390625 -1.328125 C 45.390625 -0.941406 45.253906 -0.625 44.984375 -0.375 C 44.722656 -0.125 44.414062 0 44.0625 0 L 38.78125 0 C 38.394531 0 38.078125 -0.125 37.828125 -0.375 C 37.578125 -0.625 37.453125 -0.941406 37.453125 -1.328125 L 37.453125 -16.09375 C 37.453125 -17.550781 37.25 -18.6875 36.84375 -19.5 C 36.4375 -20.3125 35.882812 -20.90625 35.1875 -21.28125 C 34.5 -21.65625 33.726562 -21.84375 32.875 -21.84375 C 32.125 -21.84375 31.398438 -21.65625 30.703125 -21.28125 C 30.015625 -20.90625 29.445312 -20.3125 29 -19.5 C 28.5625 -18.6875 28.34375 -17.550781 28.34375 -16.09375 L 28.34375 -1.328125 C 28.34375 -0.941406 28.21875 -0.625 27.96875 -0.375 C 27.71875 -0.125 27.414062 0 27.0625 0 L 21.796875 0 C 21.398438 0 21.078125 -0.125 20.828125 -0.375 C 20.578125 -0.625 20.453125 -0.941406 20.453125 -1.328125 L 20.453125 -16.09375 C 20.453125 -17.550781 20.238281 -18.6875 19.8125 -19.5 C 19.394531 -20.3125 18.835938 -20.90625 18.140625 -21.28125 C 17.453125 -21.65625 16.695312 -21.84375 15.875 -21.84375 C 15.132812 -21.84375 14.414062 -21.65625 13.71875 -21.28125 C 13.03125 -20.90625 12.460938 -20.3125 12.015625 -19.5 C 11.566406 -18.6875 11.34375 -17.566406 11.34375 -16.140625 L 11.34375 -1.328125 C 11.34375 -0.941406 11.21875 -0.625 10.96875 -0.375 C 10.726562 -0.125 10.410156 0 10.015625 0 Z M 4.640625 0 "/></g></g></g><g fill="#000000" fill-opacity="1"><g transform="translate(342.726762, 81.141809)"><g><path d="M 15.71875 0.53125 C 11.632812 0.53125 8.390625 -0.601562 5.984375 -2.875 C 3.585938 -5.144531 2.320312 -8.445312 2.1875 -12.78125 C 2.1875 -13.070312 2.1875 -13.457031 2.1875 -13.9375 C 2.1875 -14.414062 2.1875 -14.78125 2.1875 -15.03125 C 2.320312 -17.800781 2.941406 -20.171875 4.046875 -22.140625 C 5.148438 -24.109375 6.695312 -25.613281 8.6875 -26.65625 C 10.675781 -27.707031 13.003906 -28.234375 15.671875 -28.234375 C 18.679688 -28.234375 21.179688 -27.617188 23.171875 -26.390625 C 25.160156 -25.171875 26.660156 -23.503906 27.671875 -21.390625 C 28.691406 -19.273438 29.203125 -16.851562 29.203125 -14.125 L 29.203125 -12.890625 C 29.203125 -12.535156 29.078125 -12.222656 28.828125 -11.953125 C 28.578125 -11.691406 28.253906 -11.5625 27.859375 -11.5625 L 10.5 -11.5625 C 10.5 -11.5625 10.5 -11.515625 10.5 -11.421875 C 10.5 -11.335938 10.5 -11.257812 10.5 -11.1875 C 10.53125 -10.050781 10.738281 -9.007812 11.125 -8.0625 C 11.519531 -7.125 12.097656 -6.367188 12.859375 -5.796875 C 13.628906 -5.234375 14.566406 -4.953125 15.671875 -4.953125 C 16.515625 -4.953125 17.222656 -5.082031 17.796875 -5.34375 C 18.367188 -5.613281 18.835938 -5.914062 19.203125 -6.25 C 19.578125 -6.59375 19.851562 -6.890625 20.03125 -7.140625 C 20.351562 -7.523438 20.609375 -7.765625 20.796875 -7.859375 C 20.992188 -7.953125 21.289062 -8 21.6875 -8 L 27.328125 -8 C 27.648438 -8 27.925781 -7.890625 28.15625 -7.671875 C 28.382812 -7.460938 28.484375 -7.195312 28.453125 -6.875 C 28.421875 -6.269531 28.128906 -5.550781 27.578125 -4.71875 C 27.023438 -3.882812 26.210938 -3.066406 25.140625 -2.265625 C 24.078125 -1.460938 22.753906 -0.796875 21.171875 -0.265625 C 19.597656 0.265625 17.78125 0.53125 15.71875 0.53125 Z M 10.5 -16.46875 L 20.890625 -16.46875 L 20.890625 -16.625 C 20.890625 -17.863281 20.679688 -18.953125 20.265625 -19.890625 C 19.859375 -20.835938 19.265625 -21.578125 18.484375 -22.109375 C 17.703125 -22.640625 16.765625 -22.90625 15.671875 -22.90625 C 14.566406 -22.90625 13.628906 -22.640625 12.859375 -22.109375 C 12.097656 -21.578125 11.515625 -20.835938 11.109375 -19.890625 C 10.703125 -18.953125 10.5 -17.863281 10.5 -16.625 Z M 10.5 -16.46875 "/></g></g></g><g clip-path="url(#860264bef7)"><g clip-path="url(#347117e552)"><path fill="url(#114f52560e)" d="M 179 0 L 179 127.003906 L 281.222656 127.003906 L 281.222656 0 Z M 179 0 " fill-rule="nonzero"/></g></g></svg>